<svg version="1.2" xmlns="http://www.w3.org/2000/svg" viewBox="0 0 43 32" width="43" height="32"><style>.a{fill:#fff}</style><path class="a" d="m26.6 0.4l-1.4-0.4q-0.1 0-0.2 0 0 0-0.1 0-0.1 0-0.1 0-0.1 0.1-0.2 0.1 0 0-0.1 0.1 0 0-0.1 0.1 0 0-0.1 0.1 0 0.1 0 0.1l-8.7 30.2q-0.1 0-0.1 0.1 0 0.1 0 0.2 0 0 0.1 0.1 0 0.1 0 0.1 0.1 0.1 0.1 0.2 0.1 0 0.1 0.1 0.1 0 0.1 0.1 0.1 0 0.2 0l1.4 0.4q0.1 0 0.2 0 0 0.1 0.1 0 0.1 0 0.1 0 0.1 0 0.2 0 0-0.1 0.1-0.1 0.1-0.1 0.1-0.1 0-0.1 0.1-0.2 0 0 0-0.1l8.7-30.1q0.1-0.1 0.1-0.2 0-0.1 0-0.1 0-0.1-0.1-0.2 0 0 0-0.1-0.1-0.1-0.1-0.1-0.1-0.1-0.1-0.1-0.1-0.1-0.1-0.1-0.1 0-0.2-0.1z"/><path class="a" d="m13.6 6.3q0-0.1 0-0.1 0-0.1-0.1-0.2 0 0-0.1-0.1 0-0.1 0-0.1l-1.2-1.2q-0.1-0.1-0.3-0.2-0.1 0-0.3 0-0.1 0-0.2 0-0.2 0.1-0.3 0.2l-10.9 10.9q-0.1 0.1-0.1 0.2-0.1 0.2-0.1 0.3 0 0.2 0.1 0.3 0 0.2 0.1 0.3l10.9 10.8q0.1 0.1 0.3 0.2 0.1 0.1 0.2 0.1 0.2 0 0.3-0.1 0.2-0.1 0.3-0.2l1.2-1.1q0.1-0.1 0.1-0.3 0.1-0.1 0.1-0.3 0-0.1-0.1-0.3 0-0.1-0.1-0.2l-9.2-9.2 9.2-9.1q0-0.1 0-0.2 0.1 0 0.1-0.1 0.1-0.1 0.1-0.1 0-0.1 0-0.2z"/><path class="a" d="m42.5 15.5l-10.9-10.9q-0.1-0.1-0.2-0.2-0.2 0-0.3 0-0.2 0-0.3 0-0.2 0.1-0.3 0.2l-1.1 1.2q-0.2 0.1-0.2 0.2-0.1 0.2-0.1 0.3 0 0.2 0.1 0.3 0 0.2 0.2 0.3l9.1 9.1-9.1 9.2q-0.2 0.1-0.2 0.2-0.1 0.2-0.1 0.3 0 0.2 0.1 0.3 0 0.2 0.2 0.3l1.1 1.1q0.1 0.2 0.3 0.2 0.1 0.1 0.3 0.1 0.1 0 0.3-0.1 0.1 0 0.2-0.2l10.9-10.8q0.1-0.1 0.1-0.3 0.1-0.1 0.1-0.3 0-0.1-0.1-0.3 0-0.1-0.1-0.2z"/></svg>